<svg width="43" height="54" viewBox="0 0 43 54" fill="none" xmlns="http://www.w3.org/2000/svg">
<path d="M42.2359 12.3277C41.8593 11.9507 41.4126 11.7623 40.8967 11.7623H31.3735V3.191C31.3735 2.3971 31.0959 1.7221 30.5404 1.167C29.9849 0.611496 29.3097 0.333496 28.5164 0.333496H15.1828C14.3894 0.333496 13.7146 0.611097 13.159 1.1669C12.6034 1.7224 12.3259 2.3971 12.3259 3.1909V11.7622H2.80212C2.28592 11.7622 1.83962 11.9505 1.46262 12.3276C1.08582 12.7046 0.897217 13.1509 0.897217 13.6668V51.7618C0.897217 52.2781 1.08582 52.7243 1.46262 53.1015C1.84012 53.4785 2.28632 53.6669 2.80212 53.6669H40.8975C41.4133 53.6669 41.8599 53.4785 42.2367 53.1015C42.613 52.7244 42.8025 52.2782 42.8025 51.7618V13.6669C42.8021 13.151 42.6137 12.7047 42.2359 12.3277ZM16.1361 5.0952C16.1361 4.8373 16.2304 4.614 16.4188 4.4257C16.6074 4.2371 16.8305 4.1428 17.0884 4.1428H18.9931C19.251 4.1428 19.4742 4.2371 19.6626 4.4257C19.851 4.6141 19.9453 4.8373 19.9453 5.0952V7.9525H23.7544V5.0952C23.7544 4.8373 23.8489 4.614 24.037 4.4257C24.226 4.2371 24.4493 4.1428 24.7069 4.1428H26.6119C26.8702 4.1428 27.0927 4.2371 27.2818 4.4257C27.4695 4.6141 27.5636 4.8373 27.5636 5.0952V14.6192C27.5636 14.8772 27.4695 15.1002 27.2818 15.2888C27.0928 15.4774 26.8702 15.5715 26.6119 15.5715H24.7069C24.4493 15.5715 24.2253 15.4774 24.037 15.2888C23.8492 15.1002 23.7544 14.8772 23.7544 14.6192V11.7619H19.9453V14.6192C19.9453 14.8772 19.851 15.1002 19.6626 15.2888C19.4741 15.4774 19.251 15.5715 18.9931 15.5715H17.0884C16.8305 15.5715 16.6073 15.4774 16.4188 15.2888C16.2304 15.1002 16.1361 14.8772 16.1361 14.6192V5.0952ZM38.9925 49.8576H27.5642V43.191C27.5642 42.9327 27.4697 42.7094 27.282 42.521C27.0926 42.3327 26.8704 42.2384 26.6121 42.2384H17.0877C16.8298 42.2384 16.6066 42.3327 16.4182 42.521C16.2298 42.7094 16.1355 42.9327 16.1355 43.191V49.8576H4.70671V15.5715H12.3267V16.5238C12.3267 17.3174 12.6042 17.9919 13.1598 18.5475C13.7154 19.1032 14.3901 19.3809 15.1835 19.3809H28.5171C29.3104 19.3809 29.9858 19.1032 30.5404 18.5475C31.0959 17.9919 31.3738 17.3174 31.3738 16.5238V15.5715H38.9922L38.9925 49.8576Z" fill="url(#paint0_linear_259_27034)"/>
<path d="M11.3733 38.4287H9.46866C9.21076 38.4287 8.98756 38.5228 8.79906 38.7116C8.61056 38.9 8.51636 39.1233 8.51636 39.3809V41.2858C8.51636 41.5441 8.61056 41.7662 8.79906 41.9558C8.98766 42.1441 9.21076 42.2379 9.46866 42.2379H11.3733C11.6312 42.2379 11.8545 42.1441 12.0429 41.9558C12.2314 41.7663 12.3258 41.5441 12.3258 41.2858V39.3809C12.3258 39.1233 12.2314 38.9 12.0429 38.7116C11.8546 38.5233 11.6313 38.4287 11.3733 38.4287Z" fill="url(#paint1_linear_259_27034)"/>
<path d="M11.3733 30.8101H9.46866C9.21076 30.8101 8.98756 30.9042 8.79906 31.0926C8.61056 31.2807 8.51636 31.5043 8.51636 31.7618V33.6668C8.51636 33.9251 8.61056 34.1476 8.79906 34.3367C8.98766 34.5251 9.21076 34.6193 9.46866 34.6193H11.3733C11.6312 34.6193 11.8545 34.5251 12.0429 34.3367C12.2314 34.1477 12.3258 33.9251 12.3258 33.6668V31.7618C12.3258 31.5043 12.2314 31.2807 12.0429 31.0926C11.8546 30.9043 11.6313 30.8101 11.3733 30.8101Z" fill="url(#paint2_linear_259_27034)"/>
<path d="M18.993 30.8101H17.0883C16.8304 30.8101 16.6072 30.9042 16.4187 31.0926C16.2304 31.281 16.136 31.5043 16.136 31.7618V33.6668C16.136 33.9251 16.2304 34.1476 16.4187 34.3367C16.6073 34.5251 16.8304 34.6193 17.0883 34.6193H18.993C19.2508 34.6193 19.4741 34.5251 19.6625 34.3367C19.8509 34.1477 19.9452 33.9251 19.9452 33.6668V31.7618C19.9452 31.5043 19.8505 31.281 19.6625 31.0926C19.4741 30.9043 19.2508 30.8101 18.993 30.8101Z" fill="url(#paint3_linear_259_27034)"/>
<path d="M11.3733 23.1909H9.46866C9.21076 23.1909 8.98756 23.2851 8.79906 23.4736C8.61056 23.662 8.51636 23.8853 8.51636 24.1433V26.0479C8.51636 26.3059 8.61056 26.529 8.79906 26.7176C8.98766 26.9061 9.21076 27.0003 9.46866 27.0003H11.3733C11.6312 27.0003 11.8545 26.9061 12.0429 26.7176C12.2314 26.529 12.3258 26.3059 12.3258 26.0479V24.1433C12.3258 23.8853 12.2314 23.662 12.0429 23.4736C11.8546 23.2852 11.6313 23.1909 11.3733 23.1909Z" fill="url(#paint4_linear_259_27034)"/>
<path d="M34.2311 38.4287H32.3262C32.0686 38.4287 31.8453 38.5228 31.6569 38.7116C31.4682 38.9 31.3748 39.1233 31.3748 39.3809V41.2858C31.3748 41.5441 31.4682 41.7662 31.6569 41.9558C31.8453 42.1441 32.0686 42.2379 32.3262 42.2379H34.2311C34.4894 42.2379 34.7123 42.1441 34.9011 41.9558C35.0899 41.7663 35.1833 41.5441 35.1833 41.2858V39.3809C35.1833 39.1233 35.0891 38.9 34.9011 38.7116C34.7123 38.5233 34.4893 38.4287 34.2311 38.4287Z" fill="url(#paint5_linear_259_27034)"/>
<path d="M26.6121 30.8101H24.7072C24.4496 30.8101 24.2256 30.9042 24.0372 31.0926C23.8495 31.281 23.7546 31.5043 23.7546 31.7618V33.6668C23.7546 33.9251 23.8492 34.1476 24.0372 34.3367C24.2262 34.5251 24.4496 34.6193 24.7072 34.6193H26.6121C26.8704 34.6193 27.093 34.5251 27.2821 34.3367C27.4697 34.1477 27.5638 33.9251 27.5638 33.6668V31.7618C27.5638 31.5043 27.4697 31.281 27.2821 31.0926C27.0933 30.9043 26.8704 30.8101 26.6121 30.8101Z" fill="url(#paint6_linear_259_27034)"/>
<path d="M18.993 23.1909H17.0883C16.8304 23.1909 16.6072 23.2851 16.4187 23.4736C16.2304 23.662 16.136 23.8853 16.136 24.1433V26.0479C16.136 26.3059 16.2304 26.529 16.4187 26.7176C16.6073 26.9061 16.8304 27.0003 17.0883 27.0003H18.993C19.2508 27.0003 19.4741 26.9061 19.6625 26.7176C19.8509 26.529 19.9452 26.3059 19.9452 26.0479V24.1433C19.9452 23.8853 19.8505 23.6624 19.6625 23.4736C19.4741 23.2852 19.2508 23.1909 18.993 23.1909Z" fill="url(#paint7_linear_259_27034)"/>
<path d="M34.2311 30.8101H32.3262C32.0686 30.8101 31.8453 30.9042 31.6569 31.0926C31.4682 31.2807 31.3748 31.5043 31.3748 31.7618V33.6668C31.3748 33.9251 31.4682 34.1476 31.6569 34.3367C31.8453 34.5251 32.0686 34.6193 32.3262 34.6193H34.2311C34.4894 34.6193 34.7123 34.5251 34.9011 34.3367C35.0899 34.1477 35.1833 33.9251 35.1833 33.6668V31.7618C35.1833 31.5043 35.0891 31.281 34.9011 31.0926C34.7123 30.9043 34.4893 30.8101 34.2311 30.8101Z" fill="url(#paint8_linear_259_27034)"/>
<path d="M26.6121 23.1909H24.7072C24.4496 23.1909 24.2256 23.2851 24.0372 23.4736C23.8495 23.662 23.7546 23.8853 23.7546 24.1433V26.0479C23.7546 26.3059 23.8492 26.529 24.0372 26.7176C24.2262 26.9061 24.4496 27.0003 24.7072 27.0003H26.6121C26.8704 27.0003 27.093 26.9061 27.2821 26.7176C27.4697 26.529 27.5638 26.3059 27.5638 26.0479V24.1433C27.5638 23.8853 27.4697 23.6624 27.2821 23.4736C27.0933 23.2852 26.8704 23.1909 26.6121 23.1909Z" fill="url(#paint9_linear_259_27034)"/>
<path d="M31.3738 26.0479C31.3738 26.3059 31.468 26.529 31.6563 26.7176C31.8448 26.9061 32.068 27.0003 32.3256 27.0003H34.2305C34.4888 27.0003 34.7114 26.9061 34.9005 26.7176C35.0889 26.529 35.1831 26.3059 35.1831 26.0479V24.1433C35.1831 23.8853 35.0889 23.6624 34.9005 23.4736C34.7115 23.2851 34.4888 23.1909 34.2305 23.1909H32.3256C32.068 23.1909 31.8448 23.2851 31.6563 23.4736C31.468 23.662 31.3738 23.8853 31.3738 24.1433V26.0479Z" fill="url(#paint10_linear_259_27034)"/>
<defs>
<linearGradient id="paint0_linear_259_27034" x1="15.4477" y1="42.4669" x2="43.55" y2="40.5519" gradientUnits="userSpaceOnUse">
<stop stop-color="#00B5F1"/>
<stop offset="1" stop-color="#00E0FF"/>
</linearGradient>
<linearGradient id="paint1_linear_259_27034" x1="9.83907" y1="41.438" x2="12.3864" y2="41.217" gradientUnits="userSpaceOnUse">
<stop stop-color="#00B5F1"/>
<stop offset="1" stop-color="#00E0FF"/>
</linearGradient>
<linearGradient id="paint2_linear_259_27034" x1="9.83907" y1="33.8193" x2="12.3864" y2="33.5984" gradientUnits="userSpaceOnUse">
<stop stop-color="#00B5F1"/>
<stop offset="1" stop-color="#00E0FF"/>
</linearGradient>
<linearGradient id="paint3_linear_259_27034" x1="17.4586" y1="33.8193" x2="20.0058" y2="33.5984" gradientUnits="userSpaceOnUse">
<stop stop-color="#00B5F1"/>
<stop offset="1" stop-color="#00E0FF"/>
</linearGradient>
<linearGradient id="paint4_linear_259_27034" x1="9.83907" y1="26.2003" x2="12.3864" y2="25.9794" gradientUnits="userSpaceOnUse">
<stop stop-color="#00B5F1"/>
<stop offset="1" stop-color="#00E0FF"/>
</linearGradient>
<linearGradient id="paint5_linear_259_27034" x1="32.6972" y1="41.438" x2="35.2439" y2="41.2171" gradientUnits="userSpaceOnUse">
<stop stop-color="#00B5F1"/>
<stop offset="1" stop-color="#00E0FF"/>
</linearGradient>
<linearGradient id="paint6_linear_259_27034" x1="25.0773" y1="33.8193" x2="27.6245" y2="33.5984" gradientUnits="userSpaceOnUse">
<stop stop-color="#00B5F1"/>
<stop offset="1" stop-color="#00E0FF"/>
</linearGradient>
<linearGradient id="paint7_linear_259_27034" x1="17.4586" y1="26.2003" x2="20.0058" y2="25.9794" gradientUnits="userSpaceOnUse">
<stop stop-color="#00B5F1"/>
<stop offset="1" stop-color="#00E0FF"/>
</linearGradient>
<linearGradient id="paint8_linear_259_27034" x1="32.6972" y1="33.8193" x2="35.2439" y2="33.5985" gradientUnits="userSpaceOnUse">
<stop stop-color="#00B5F1"/>
<stop offset="1" stop-color="#00E0FF"/>
</linearGradient>
<linearGradient id="paint9_linear_259_27034" x1="25.0773" y1="26.2003" x2="27.6245" y2="25.9794" gradientUnits="userSpaceOnUse">
<stop stop-color="#00B5F1"/>
<stop offset="1" stop-color="#00E0FF"/>
</linearGradient>
<linearGradient id="paint10_linear_259_27034" x1="32.6965" y1="26.2003" x2="35.2437" y2="25.9794" gradientUnits="userSpaceOnUse">
<stop stop-color="#00B5F1"/>
<stop offset="1" stop-color="#00E0FF"/>
</linearGradient>
</defs>
</svg>
