<svg width="50" height="55" viewBox="0 0 50 55" fill="none" xmlns="http://www.w3.org/2000/svg">
<path d="M47.7494 16.1112C46.4526 14.8151 44.8786 14.1669 43.0265 14.1669C41.1753 14.1669 39.6013 14.8151 38.3044 16.1112C37.0084 17.4076 36.3604 18.9815 36.3604 20.8337C36.3604 22.2688 36.7711 23.5538 37.5928 24.6876C38.4152 25.8221 39.4853 26.6318 40.8049 27.1181V40.8335C40.8049 43.2874 39.7166 45.3825 37.5411 47.1184C35.3653 48.8543 32.7499 49.7225 29.6939 49.7225C26.6386 49.7225 24.0227 48.8543 21.8466 47.1184C19.6709 45.3826 18.5827 43.2874 18.5827 40.8335V36.2503C22.3793 35.7875 25.5504 34.3055 28.097 31.8053C30.6432 29.3057 31.9167 26.3889 31.9167 23.0551V5.27805C31.9167 4.67625 31.6962 4.15515 31.2566 3.71525C30.8172 3.27595 30.2953 3.05555 29.6933 3.05555C29.5551 3.05555 29.3695 3.07905 29.1382 3.12515C28.7444 2.43035 28.2009 1.87555 27.5059 1.45825C26.8126 1.04135 26.0596 0.833252 25.2495 0.833252C24.023 0.833252 22.9755 1.26785 22.1073 2.13535C21.2391 3.00355 20.8052 4.05105 20.8052 5.27805C20.8052 6.50455 21.2391 7.55215 22.1073 8.42025C22.9755 9.28835 24.023 9.72235 25.2495 9.72235C26.0134 9.72235 26.7539 9.51425 27.4717 9.09735V23.0556C27.4717 25.5097 26.3839 27.6043 24.208 29.3408C22.0319 31.0764 19.4159 31.9441 16.3607 31.9441C13.3054 31.9441 10.6895 31.0762 8.51349 29.3408C6.33779 27.6048 5.24969 25.5101 5.24969 23.0556V9.09735C5.96699 9.51415 6.70819 9.72235 7.47199 9.72235C8.69849 9.72235 9.74609 9.28845 10.6142 8.42025C11.4822 7.55205 11.916 6.50455 11.916 5.27805C11.916 4.05115 11.4822 3.00355 10.6142 2.13535C9.74599 1.26785 8.69829 0.833252 7.47179 0.833252C6.66149 0.833252 5.90909 1.04135 5.21459 1.45825C4.52039 1.87505 3.97619 2.43025 3.58289 3.12515C3.35109 3.07915 3.16609 3.05555 3.02709 3.05555C2.42489 3.05555 1.90419 3.27595 1.46429 3.71525C1.02469 4.15515 0.804688 4.67625 0.804688 5.27805V23.0557C0.804688 26.389 2.07749 29.3051 4.62409 31.8054C7.17049 34.3056 10.3418 35.7877 14.138 36.2509V40.834C14.138 44.5149 15.6601 47.6571 18.7042 50.2608C21.7484 52.8649 25.4114 54.1667 29.6933 54.1667C33.9768 54.1667 37.6392 52.8649 40.6833 50.2608C43.7281 47.6571 45.2489 44.5149 45.2489 40.834V27.1181C46.569 26.6318 47.6394 25.822 48.4611 24.6876C49.2834 23.5536 49.6948 22.2686 49.6948 20.8337C49.6944 18.982 49.0464 17.4075 47.7494 16.1112ZM44.5906 22.3961C44.1502 22.836 43.6292 23.0557 43.0274 23.0557C42.4255 23.0557 41.9052 22.836 41.4649 22.3961C41.0254 21.9563 40.8057 21.4356 40.8057 20.8337C40.8057 20.2318 41.0254 19.7108 41.4649 19.2709C41.9052 18.8316 42.4255 18.6113 43.0274 18.6113C43.6292 18.6113 44.1501 18.8316 44.5906 19.2709C45.0301 19.7108 45.2499 20.2318 45.2499 20.8337C45.2499 21.4359 45.0301 21.9563 44.5906 22.3961Z" fill="url(#paint0_linear_259_27027)"/>
<defs>
<linearGradient id="paint0_linear_259_27027" x1="17.7804" y1="42.9666" x2="50.5123" y2="40.3644" gradientUnits="userSpaceOnUse">
<stop stop-color="#00B5F1"/>
<stop offset="1" stop-color="#00E0FF"/>
</linearGradient>
</defs>
</svg>
