<svg width="54" height="50" viewBox="0 0 54 50" fill="none" xmlns="http://www.w3.org/2000/svg">
<path d="M53.1487 24.3153L30.4753 2.03092C28.531 0.119918 25.3676 0.119919 23.4234 2.03082L0.750024 24.3153C0.134524 24.9203 0.125924 25.9096 0.730825 26.525C1.33572 27.1403 2.32512 27.1491 2.94042 26.5442L25.6139 4.25962C26.3503 3.53572 27.5484 3.53572 28.2848 4.25962L50.9583 26.5442C51.2626 26.8431 51.6581 26.9923 52.0534 26.9923C52.4578 26.9923 52.8621 26.8362 53.1679 26.5251C53.7728 25.9096 53.7642 24.9203 53.1487 24.3153Z" fill="url(#paint0_linear_259_27052)"/>
<path d="M28.4917 28.6722V23.644H25.3803V28.6722C25.3803 29.5347 24.6803 30.2347 23.8178 30.2347H18.7886V33.3451H23.8178C24.6803 33.3451 25.3803 34.0451 25.3803 34.9076V39.9357H28.4917V34.9076C28.4917 34.0451 29.1907 33.3451 30.0542 33.3451H35.0813V30.2347H30.0542C29.1907 30.2347 28.4917 29.5347 28.4917 28.6722Z" fill="url(#paint1_linear_259_27052)"/>
<path d="M26.9349 7.32861L5.11609 28.7734C4.98489 28.9015 4.84739 29.0202 4.70459 29.1317V42.6015C4.70459 46.3515 7.75569 49.4025 11.5057 49.4025H42.3932C46.1432 49.4025 49.1942 46.3515 49.1942 42.6015V29.1546C49.0411 29.0369 48.8932 28.9108 48.7536 28.7734L26.9349 7.32861ZM38.2057 34.9077C38.2057 35.7713 37.5057 36.4702 36.6432 36.4702H31.6161V41.4983C31.6161 42.3619 30.9161 43.0608 30.0536 43.0608H23.8171C22.9536 43.0608 22.2546 42.3619 22.2546 41.4983V36.4702H17.2255C16.363 36.4702 15.663 35.7713 15.663 34.9077V28.6723C15.663 27.8088 16.363 27.1098 17.2255 27.1098H22.2546V22.0817C22.2546 21.2181 22.9536 20.5192 23.8171 20.5192H30.0536C30.9161 20.5192 31.6161 21.2181 31.6161 22.0817V27.1098H36.6432C37.5057 27.1098 38.2057 27.8088 38.2057 28.6723V34.9077Z" fill="url(#paint2_linear_259_27052)"/>
<defs>
<linearGradient id="paint0_linear_259_27052" x1="18.8012" y1="21.4494" x2="53.6629" y2="15.3402" gradientUnits="userSpaceOnUse">
<stop stop-color="#00B5F1"/>
<stop offset="1" stop-color="#00E0FF"/>
</linearGradient>
<linearGradient id="paint1_linear_259_27052" x1="24.4458" y1="36.5145" x2="35.3407" y2="35.5695" gradientUnits="userSpaceOnUse">
<stop stop-color="#00B5F1"/>
<stop offset="1" stop-color="#00E0FF"/>
</linearGradient>
<linearGradient id="paint2_linear_259_27052" x1="20.1524" y1="40.567" x2="49.8764" y2="37.8411" gradientUnits="userSpaceOnUse">
<stop stop-color="#00B5F1"/>
<stop offset="1" stop-color="#00E0FF"/>
</linearGradient>
</defs>
</svg>
