<svg width="50" height="54" viewBox="0 0 50 54" fill="none" xmlns="http://www.w3.org/2000/svg">
<path d="M25.05 27.0005C28.7316 27.0005 31.8738 25.698 34.4777 23.094C37.0818 20.49 38.3841 17.3478 38.3841 13.6667C38.3841 9.9863 37.0818 6.8439 34.4777 4.2393C31.873 1.6355 28.7306 0.333496 25.05 0.333496C21.3695 0.333496 18.2266 1.6355 15.6228 4.2393C13.0184 6.8439 11.7163 9.9862 11.7163 13.6667C11.7163 17.3478 13.0184 20.49 15.6228 23.094C18.2274 25.698 21.3694 27.0005 25.05 27.0005Z" fill="url(#paint0_linear_259_27062)"/>
<path d="M49.3038 40.1252C49.176 38.6669 48.8992 37.0696 48.4705 35.3332C48.0426 33.5973 47.4924 32.0635 46.8214 30.7326C46.1497 29.4016 45.2124 28.2096 44.0084 27.1559C42.805 26.1027 41.4155 25.4021 39.8417 25.0552C40.0273 25.495 40.1781 25.958 40.2938 26.4441C40.4095 26.9304 40.4911 27.4741 40.5368 28.0756C40.5822 28.6774 40.6126 29.1576 40.6234 29.5173C40.6347 29.876 40.6347 30.4312 40.6234 31.1837C40.6126 31.9363 40.6059 32.4281 40.6059 32.6595C41.9718 33.4463 43.0539 34.5292 43.8521 35.9059C44.6508 37.2835 45.0508 38.7585 45.0508 40.3334V43.4241C45.7907 44.095 46.1612 44.9165 46.1612 45.8889C46.1612 46.8152 45.8369 47.602 45.189 48.2495C44.541 48.898 43.7547 49.2217 42.8283 49.2217C41.9018 49.2217 41.1148 48.898 40.4669 48.2495C39.8188 47.602 39.4954 46.8152 39.4954 45.8889C39.4954 44.9167 39.8658 44.095 40.6059 43.4241V40.3334C40.6059 39.1298 40.1655 38.0871 39.2861 37.2086C38.4066 36.3279 37.3649 35.8885 36.1613 35.8885C34.9573 35.8885 33.915 36.3279 33.0356 37.2086C32.1563 38.0873 31.7163 39.1298 31.7163 40.3334V43.4241C32.4567 44.095 32.8271 44.9165 32.8271 45.8889C32.8271 46.8152 32.5033 47.602 31.8549 48.2495C31.2068 48.898 30.4202 49.2217 29.4933 49.2217C28.5678 49.2217 27.7812 48.898 27.1331 48.2495C26.4851 47.602 26.1608 46.8152 26.1608 45.8889C26.1608 44.9167 26.5313 44.095 27.2717 43.4241V40.3334C27.2717 37.8794 28.14 35.7844 29.8754 34.0488C31.6118 32.3124 33.7062 31.4442 36.1601 31.4442V29.2217C36.1601 27.7871 35.8712 26.7108 35.2927 25.9926C32.237 28.4009 28.8225 29.6042 25.049 29.6042C21.276 29.6042 17.8612 28.4008 14.8059 25.9926C14.2273 26.7108 13.9377 27.7871 13.9377 29.2217V36.2705C15.2572 36.7341 16.3275 37.5441 17.1495 38.7011C17.9718 39.859 18.3825 41.1433 18.3825 42.5559C18.3825 44.4072 17.7346 45.982 16.4383 47.278C15.1418 48.5741 13.5676 49.2221 11.7156 49.2221C9.86388 49.2221 8.28998 48.5741 6.99338 47.278C5.69728 45.982 5.04908 44.4072 5.04908 42.5559C5.04908 41.1438 5.45438 39.8589 6.26458 38.7011C7.07468 37.544 8.15138 36.7341 9.49388 36.2705V29.2217C9.49388 27.6481 9.74838 26.2591 10.2576 25.0556C8.68338 25.4029 7.29468 26.1032 6.09078 27.1563C4.88718 28.2095 3.94968 29.4015 3.27838 30.7325C2.60708 32.0642 2.05718 33.5981 1.62898 35.3339C1.20078 37.0696 0.92338 38.6668 0.79578 40.1252C0.66848 41.5837 0.60498 43.1003 0.60498 44.6743C0.60498 47.4753 1.45008 49.6745 3.13978 51.271C4.82978 52.8685 7.07528 53.6666 9.87618 53.6666H40.2241C43.0247 53.6666 45.2701 52.8685 46.9603 51.271C48.651 49.6745 49.4955 47.4753 49.4955 44.6743C49.4956 43.0994 49.431 41.5837 49.3038 40.1252Z" fill="url(#paint1_linear_259_27062)"/>
<path d="M9.49463 42.5561C9.49463 43.1578 9.71463 43.6788 10.1543 44.1185C10.5942 44.5588 11.1144 44.7785 11.7167 44.7785C12.319 44.7785 12.8399 44.5588 13.2796 44.1185C13.7195 43.679 13.9395 43.1579 13.9395 42.5561C13.9395 41.9542 13.7195 41.4332 13.2796 40.9935C12.8395 40.5541 12.3186 40.3335 11.7167 40.3335C11.1149 40.3335 10.5943 40.554 10.1543 40.9935C9.71463 41.433 9.49463 41.9542 9.49463 42.5561Z" fill="url(#paint2_linear_259_27062)"/>
<defs>
<linearGradient id="paint0_linear_259_27062" x1="20.976" y1="21.4004" x2="38.8087" y2="19.8538" gradientUnits="userSpaceOnUse">
<stop stop-color="#00B5F1"/>
<stop offset="1" stop-color="#00E0FF"/>
</linearGradient>
<linearGradient id="paint1_linear_259_27062" x1="17.5808" y1="47.6582" x2="49.812" y2="42.8816" gradientUnits="userSpaceOnUse">
<stop stop-color="#00B5F1"/>
<stop offset="1" stop-color="#00E0FF"/>
</linearGradient>
<linearGradient id="paint2_linear_259_27062" x1="11.038" y1="43.845" x2="14.0103" y2="43.5873" gradientUnits="userSpaceOnUse">
<stop stop-color="#00B5F1"/>
<stop offset="1" stop-color="#00E0FF"/>
</linearGradient>
</defs>
</svg>
