<svg width="54" height="54" viewBox="0 0 54 54" fill="none" xmlns="http://www.w3.org/2000/svg">
<path d="M53.7821 2.36312C53.694 1.84502 53.4597 1.40973 53.0813 1.05593C52.6268 0.576825 52.0589 0.336426 51.3769 0.336426C50.973 0.336426 50.607 0.424226 50.2784 0.601326L1.8004 24.8408C1.2948 25.0936 0.929203 25.4715 0.701703 25.9767C0.474503 26.482 0.424204 27.0125 0.550104 27.5672C0.676304 28.1228 0.960702 28.5704 1.4022 28.9127C1.8439 29.2531 2.3427 29.424 2.8981 29.424H24.7126V51.2394C24.7126 51.7955 24.8833 52.2939 25.224 52.736C25.5652 53.1778 26.0134 53.4624 26.5688 53.5882C26.8213 53.6377 27.011 53.6636 27.137 53.6636C28.1468 53.6636 28.8668 53.2218 29.2958 52.3375L53.5361 3.85893C53.7885 3.37943 53.8698 2.88072 53.7821 2.36312Z" fill="url(#paint0_linear_259_27072)"/>
<defs>
<linearGradient id="paint0_linear_259_27072" x1="19.0013" y1="42.4649" x2="54.6654" y2="39.3715" gradientUnits="userSpaceOnUse">
<stop stop-color="#00B5F1"/>
<stop offset="1" stop-color="#00E0FF"/>
</linearGradient>
</defs>
</svg>
